<svg
    xmlns="http://www.w3.org/2000/svg"
    width="251"
    height="71"
    viewBox="0 0 251 71"
    fill="none"
  >
    <g clip-path="url(#clip0_18_751)">
      <g filter="url(#filter0_d_18_751)">
        <g filter="url(#filter1_ii_18_751)">
          <path
            d="M234 3H17C10.3726 3 5 8.37258 5 15V52C5 58.6274 10.3726 64 17 64H234C240.627 64 246 58.6274 246 52V15C246 8.37258 240.627 3 234 3Z"
            fill="url(#paint0_linear_18_751)"></path>
        </g>
        <path
          d="M234 2.5H17C10.0964 2.5 4.5 8.09644 4.5 15V52C4.5 58.9036 10.0964 64.5 17 64.5H234C240.904 64.5 246.5 58.9036 246.5 52V15C246.5 8.09644 240.904 2.5 234 2.5Z"
          stroke="url(#paint1_linear_18_751)"></path>
        <g filter="url(#filter2_i_18_751)">
          <path
            d="M71.8729 19.4828H76.3143V35.5004C76.3143 37.2562 75.8993 38.8005 75.0692 40.1333C74.2472 41.4661 73.09 42.5076 71.5976 43.2578C70.1052 44 68.3613 44.3711 66.3661 44.3711C64.3629 44.3711 62.6151 44 61.1227 43.2578C59.6303 42.5076 58.4731 41.4661 57.651 40.1333C56.829 38.8005 56.418 37.2562 56.418 35.5004V19.4828H60.8593V35.1293C60.8593 36.1508 61.0828 37.0607 61.5297 37.8587C61.9846 38.6568 62.6231 39.2833 63.4451 39.7382C64.2672 40.1852 65.2408 40.4086 66.3661 40.4086C67.4914 40.4086 68.4651 40.1852 69.2871 39.7382C70.1171 39.2833 70.7556 38.6568 71.2025 37.8587C71.6494 37.0607 71.8729 36.1508 71.8729 35.1293V19.4828ZM83.2232 19.4828V44H78.7819V19.4828H83.2232ZM101.128 19.4828H105.569V35.5004C105.569 37.2562 105.154 38.8005 104.324 40.1333C103.502 41.4661 102.345 42.5076 100.853 43.2578C99.3601 44 97.6163 44.3711 95.621 44.3711C93.6179 44.3711 91.87 44 90.3776 43.2578C88.8852 42.5076 87.728 41.4661 86.906 40.1333C86.0839 38.8005 85.6729 37.2562 85.6729 35.5004V19.4828H90.1143V35.1293C90.1143 36.1508 90.3377 37.0607 90.7847 37.8587C91.2396 38.6568 91.878 39.2833 92.7001 39.7382C93.5221 40.1852 94.4957 40.4086 95.621 40.4086C96.7463 40.4086 97.72 40.1852 98.542 39.7382C99.372 39.2833 100.011 38.6568 100.458 37.8587C100.905 37.0607 101.128 36.1508 101.128 35.1293V19.4828ZM111.748 19.4828L117.147 28.4613H117.339L122.762 19.4828H127.826L120.272 31.7414L127.945 44H122.798L117.339 35.0814H117.147L111.688 44H106.565L114.31 31.7414L106.66 19.4828H111.748ZM143.263 44H134.955V19.4828H143.43C145.864 19.4828 147.955 19.9737 149.703 20.9553C151.459 21.929 152.808 23.3296 153.749 25.1572C154.691 26.9848 155.162 29.1716 155.162 31.7175C155.162 34.2713 154.687 36.4661 153.737 38.3017C152.796 40.1373 151.435 41.5459 149.655 42.5275C147.884 43.5092 145.753 44 143.263 44ZM139.396 40.1572H143.047C144.755 40.1572 146.18 39.846 147.321 39.2235C148.462 38.593 149.32 37.6552 149.895 36.4102C150.469 35.1572 150.757 33.593 150.757 31.7175C150.757 29.842 150.469 28.2857 149.895 27.0487C149.32 25.8037 148.47 24.8739 147.345 24.2594C146.227 23.6369 144.839 23.3256 143.179 23.3256H139.396V40.1572ZM164.971 44.3591C163.128 44.3591 161.535 43.9761 160.195 43.2099C158.862 42.4358 157.836 41.3424 157.118 39.9298C156.4 38.5092 156.041 36.8372 156.041 34.9138C156.041 33.0223 156.4 31.3623 157.118 29.9338C157.844 28.4972 158.858 27.3799 160.159 26.5818C161.46 25.7757 162.988 25.3727 164.744 25.3727C165.877 25.3727 166.946 25.5563 167.952 25.9234C168.965 26.2825 169.859 26.8412 170.633 27.5994C171.416 28.3575 172.03 29.3232 172.477 30.4964C172.924 31.6616 173.147 33.0503 173.147 34.6624V35.9912H158.076V33.0702H168.993C168.985 32.2402 168.806 31.502 168.455 30.8555C168.104 30.2011 167.613 29.6863 166.982 29.3112C166.36 28.9361 165.633 28.7486 164.803 28.7486C163.918 28.7486 163.139 28.9641 162.469 29.395C161.799 29.818 161.276 30.3767 160.901 31.071C160.534 31.7574 160.346 32.5116 160.338 33.3336V35.8835C160.338 36.9529 160.534 37.8707 160.925 38.6369C161.316 39.395 161.863 39.9777 162.565 40.3847C163.267 40.7837 164.089 40.9832 165.031 40.9832C165.661 40.9832 166.232 40.8954 166.743 40.7199C167.254 40.5363 167.697 40.269 168.072 39.9178C168.447 39.5666 168.73 39.1317 168.922 38.6129L172.968 39.0678C172.713 40.1373 172.226 41.071 171.507 41.8691C170.797 42.6592 169.887 43.2737 168.778 43.7127C167.669 44.1437 166.4 44.3591 164.971 44.3591ZM188.987 30.4725L185.036 30.9034C184.925 30.5044 184.729 30.1293 184.45 29.7781C184.179 29.427 183.811 29.1436 183.349 28.9282C182.886 28.7127 182.319 28.6049 181.649 28.6049C180.747 28.6049 179.989 28.8005 179.374 29.1915C178.768 29.5826 178.468 30.0894 178.476 30.7119C178.468 31.2466 178.664 31.6816 179.063 32.0168C179.47 32.3519 180.14 32.6273 181.074 32.8428L184.21 33.5132C185.95 33.8883 187.243 34.4828 188.089 35.2969C188.943 36.1109 189.374 37.1764 189.382 38.4932C189.374 39.6504 189.035 40.672 188.365 41.5579C187.702 42.4358 186.78 43.1221 185.599 43.6169C184.418 44.1117 183.061 44.3591 181.529 44.3591C179.278 44.3591 177.467 43.8883 176.094 42.9465C174.721 41.9968 173.903 40.676 173.64 38.984L177.866 38.577C178.057 39.407 178.464 40.0335 179.087 40.4565C179.709 40.8795 180.519 41.091 181.517 41.091C182.546 41.091 183.372 40.8795 183.995 40.4565C184.625 40.0335 184.941 39.5108 184.941 38.8883C184.941 38.3615 184.737 37.9266 184.33 37.5834C183.931 37.2402 183.309 36.9769 182.463 36.7933L179.326 36.1349C177.562 35.7678 176.258 35.1492 175.412 34.2793C174.566 33.4014 174.147 32.2921 174.155 30.9513C174.147 29.818 174.454 28.8364 175.076 28.0064C175.707 27.1684 176.581 26.5219 177.698 26.067C178.823 25.6041 180.12 25.3727 181.589 25.3727C183.744 25.3727 185.44 25.8316 186.677 26.7494C187.922 27.6672 188.692 28.9082 188.987 30.4725ZM190.596 44V25.6121H194.929V44H190.596ZM192.774 23.0024C192.088 23.0024 191.498 22.7749 191.003 22.32C190.508 21.8571 190.261 21.3025 190.261 20.656C190.261 20.0016 190.508 19.4469 191.003 18.992C191.498 18.5291 192.088 18.2977 192.774 18.2977C193.469 18.2977 194.059 18.5291 194.546 18.992C195.041 19.4469 195.288 20.0016 195.288 20.656C195.288 21.3025 195.041 21.8571 194.546 22.32C194.059 22.7749 193.469 23.0024 192.774 23.0024ZM205.023 51.2785C203.466 51.2785 202.13 51.067 201.012 50.6441C199.895 50.2291 198.997 49.6704 198.319 48.9681C197.64 48.2658 197.169 47.4876 196.906 46.6337L200.809 45.6879C200.984 46.0471 201.24 46.4022 201.575 46.7534C201.91 47.1125 202.361 47.4078 202.928 47.6393C203.502 47.8787 204.225 47.9984 205.094 47.9984C206.324 47.9984 207.341 47.6991 208.147 47.1006C208.953 46.51 209.356 45.5363 209.356 44.1796V40.6959H209.141C208.917 41.1429 208.59 41.6018 208.159 42.0726C207.736 42.5435 207.173 42.9385 206.471 43.2578C205.777 43.577 204.903 43.7366 203.849 43.7366C202.437 43.7366 201.156 43.4054 200.007 42.743C198.865 42.0726 197.956 41.075 197.277 39.7502C196.607 38.4174 196.272 36.7494 196.272 34.7462C196.272 32.727 196.607 31.0231 197.277 29.6345C197.956 28.2378 198.869 27.1804 200.019 26.4621C201.168 25.7358 202.449 25.3727 203.861 25.3727C204.939 25.3727 205.825 25.5563 206.519 25.9234C207.221 26.2825 207.78 26.7175 208.195 27.2282C208.61 27.731 208.925 28.2059 209.141 28.6528H209.38V25.6121H213.654V44.2993C213.654 45.8715 213.279 47.1724 212.529 48.2019C211.778 49.2314 210.753 50.0016 209.452 50.5124C208.151 51.0231 206.675 51.2785 205.023 51.2785ZM205.059 40.3368C205.976 40.3368 206.758 40.1133 207.405 39.6664C208.051 39.2195 208.542 38.577 208.877 37.739C209.213 36.901 209.38 35.8954 209.38 34.7223C209.38 33.565 209.213 32.5515 208.877 31.6816C208.55 30.8116 208.063 30.1373 207.417 29.6584C206.778 29.1716 205.992 28.9282 205.059 28.9282C204.093 28.9282 203.287 29.1796 202.64 29.6824C201.994 30.1851 201.507 30.8755 201.18 31.7534C200.853 32.6233 200.689 33.6129 200.689 34.7223C200.689 35.8476 200.853 36.8332 201.18 37.6792C201.515 38.5172 202.006 39.1716 202.652 39.6425C203.307 40.1053 204.109 40.3368 205.059 40.3368ZM220.069 33.2259V44H215.736V25.6121H219.878V28.7366H220.093C220.516 27.7071 221.19 26.8891 222.116 26.2825C223.05 25.676 224.203 25.3727 225.576 25.3727C226.845 25.3727 227.95 25.644 228.892 26.1867C229.842 26.7294 230.576 27.5156 231.095 28.5451C231.621 29.5746 231.881 30.8236 231.873 32.2921V44H227.539V32.9625C227.539 31.7334 227.22 30.7717 226.581 30.0774C225.951 29.3831 225.077 29.0359 223.96 29.0359C223.202 29.0359 222.527 29.2035 221.937 29.5387C221.354 29.8659 220.895 30.3408 220.56 30.9633C220.233 31.5858 220.069 32.34 220.069 33.2259Z"
            fill="url(#paint2_linear_18_751)"></path>
        </g>
        <g filter="url(#filter3_i_18_751)">
          <path
            d="M38.9614 33.149L31.8552 26.0416C31.5994 25.786 31.2815 25.6014 30.9328 25.5058C30.5841 25.4103 30.2165 25.4071 29.8662 25.4966L23.3753 27.1958C22.9275 27.3102 22.5312 27.5722 22.2504 27.9395C21.9697 28.3068 21.8208 28.7579 21.8277 29.2202C21.8679 34.3242 20.9378 39.3892 19.0867 44.1457C18.9946 44.3925 18.9754 44.6606 19.0314 44.918C19.0873 45.1754 19.2161 45.4113 19.4023 45.5976C19.5886 45.7839 19.8244 45.9127 20.0818 45.9686C20.3392 46.0246 20.6072 46.0054 20.854 45.9132C25.6101 44.064 30.6743 43.1358 35.777 43.178C36.2392 43.185 36.6903 43.0361 37.0575 42.7552C37.4248 42.4744 37.6867 42.0781 37.8012 41.6302L39.5063 35.1382C39.5957 34.7878 39.5926 34.4202 39.497 34.0715C39.4015 33.7227 39.2169 33.4048 38.9614 33.149ZM32.5243 37.3968C32.0382 37.8831 31.4187 38.2143 30.7443 38.3484C30.07 38.4826 29.371 38.4138 28.7357 38.1506C28.1005 37.8874 27.5575 37.4418 27.1755 36.87C26.7935 36.2982 26.5896 35.6259 26.5896 34.9382C26.5896 34.2505 26.7935 33.5783 27.1755 33.0065C27.5575 32.4347 28.1005 31.989 28.7357 31.7259C29.371 31.4627 30.07 31.3939 30.7443 31.528C31.4187 31.6622 32.0382 31.9934 32.5243 32.4797C33.1753 33.1323 33.5408 34.0164 33.5408 34.9382C33.5408 35.86 33.1753 36.7442 32.5243 37.3968Z"
            fill="url(#paint3_linear_18_751)"></path>
          <path
            d="M47.3935 25.9089L39.0927 17.6068C38.2838 16.7977 36.9722 16.7977 36.1632 17.6068L33.2103 20.5602C32.4013 21.3693 32.4013 22.6811 33.2103 23.4902L41.511 31.7923C42.32 32.6014 43.6316 32.6014 44.4405 31.7923L47.3935 28.8389C48.2024 28.0298 48.2024 26.718 47.3935 25.9089Z"
            fill="url(#paint4_linear_18_751)"></path>
        </g>
      </g>
    </g>
    <defs>
      <filter
        id="filter0_d_18_751"
        x="0"
        y="0"
        width="251"
        height="71"
        filterUnits="userSpaceOnUse"
        color-interpolation-filters="sRGB"
      >
        <feFlood flood-opacity="0" result="BackgroundImageFix"></feFlood>
        <feColorMatrix
          in="SourceAlpha"
          type="matrix"
          values="0 0 0 0 0 0 0 0 0 0 0 0 0 0 0 0 0 0 127 0"
          result="hardAlpha"></feColorMatrix>
        <feOffset dy="2"></feOffset>
        <feGaussianBlur stdDeviation="2"></feGaussianBlur>
        <feComposite in2="hardAlpha" operator="out"></feComposite>
        <feColorMatrix
          type="matrix"
          values="0 0 0 0 0 0 0 0 0 0 0 0 0 0 0 0 0 0 0.15 0"></feColorMatrix>
        <feBlend
          mode="normal"
          in2="BackgroundImageFix"
          result="effect1_dropShadow_18_751"></feBlend>
        <feBlend
          mode="normal"
          in="SourceGraphic"
          in2="effect1_dropShadow_18_751"
          result="shape"></feBlend>
      </filter>
      <filter
        id="filter1_ii_18_751"
        x="5"
        y="2.5"
        width="241"
        height="62"
        filterUnits="userSpaceOnUse"
        color-interpolation-filters="sRGB"
      >
        <feFlood flood-opacity="0" result="BackgroundImageFix"></feFlood>
        <feBlend
          mode="normal"
          in="SourceGraphic"
          in2="BackgroundImageFix"
          result="shape"></feBlend>
        <feColorMatrix
          in="SourceAlpha"
          type="matrix"
          values="0 0 0 0 0 0 0 0 0 0 0 0 0 0 0 0 0 0 127 0"
          result="hardAlpha"></feColorMatrix>
        <feOffset dy="2"></feOffset>
        <feGaussianBlur stdDeviation="0.25"></feGaussianBlur>
        <feComposite in2="hardAlpha" operator="arithmetic" k2="-1" k3="1"
        ></feComposite>
        <feColorMatrix
          type="matrix"
          values="0 0 0 0 1 0 0 0 0 1 0 0 0 0 1 0 0 0 1 0"></feColorMatrix>
        <feBlend mode="normal" in2="shape" result="effect1_innerShadow_18_751"
        ></feBlend>
        <feColorMatrix
          in="SourceAlpha"
          type="matrix"
          values="0 0 0 0 0 0 0 0 0 0 0 0 0 0 0 0 0 0 127 0"
          result="hardAlpha"></feColorMatrix>
        <feOffset dy="-3.5"></feOffset>
        <feGaussianBlur stdDeviation="0.25"></feGaussianBlur>
        <feComposite in2="hardAlpha" operator="arithmetic" k2="-1" k3="1"
        ></feComposite>
        <feColorMatrix
          type="matrix"
          values="0 0 0 0 0.742389 0 0 0 0 0.568896 0 0 0 0 1 0 0 0 0.3 0"
        ></feColorMatrix>
        <feBlend
          mode="normal"
          in2="effect1_innerShadow_18_751"
          result="effect2_innerShadow_18_751"></feBlend>
      </filter>
      <filter
        id="filter2_i_18_751"
        x="56.418"
        y="18.2977"
        width="175.455"
        height="33.4808"
        filterUnits="userSpaceOnUse"
        color-interpolation-filters="sRGB"
      >
        <feFlood flood-opacity="0" result="BackgroundImageFix"></feFlood>
        <feBlend
          mode="normal"
          in="SourceGraphic"
          in2="BackgroundImageFix"
          result="shape"></feBlend>
        <feColorMatrix
          in="SourceAlpha"
          type="matrix"
          values="0 0 0 0 0 0 0 0 0 0 0 0 0 0 0 0 0 0 127 0"
          result="hardAlpha"></feColorMatrix>
        <feOffset dy="0.7"></feOffset>
        <feGaussianBlur stdDeviation="0.25"></feGaussianBlur>
        <feComposite in2="hardAlpha" operator="arithmetic" k2="-1" k3="1"
        ></feComposite>
        <feColorMatrix
          type="matrix"
          values="0 0 0 0 0.72549 0 0 0 0 0.513726 0 0 0 0 0.956863 0 0 0 1 0"
        ></feColorMatrix>
        <feBlend mode="normal" in2="shape" result="effect1_innerShadow_18_751"
        ></feBlend>
      </filter>
      <filter
        id="filter3_i_18_751"
        x="19"
        y="17"
        width="29"
        height="29.5"
        filterUnits="userSpaceOnUse"
        color-interpolation-filters="sRGB"
      >
        <feFlood flood-opacity="0" result="BackgroundImageFix"></feFlood>
        <feBlend
          mode="normal"
          in="SourceGraphic"
          in2="BackgroundImageFix"
          result="shape"></feBlend>
        <feColorMatrix
          in="SourceAlpha"
          type="matrix"
          values="0 0 0 0 0 0 0 0 0 0 0 0 0 0 0 0 0 0 127 0"
          result="hardAlpha"></feColorMatrix>
        <feOffset dy="0.7"></feOffset>
        <feGaussianBlur stdDeviation="0.25"></feGaussianBlur>
        <feComposite in2="hardAlpha" operator="arithmetic" k2="-1" k3="1"
        ></feComposite>
        <feColorMatrix
          type="matrix"
          values="0 0 0 0 0.72549 0 0 0 0 0.513726 0 0 0 0 0.956863 0 0 0 1 0"
        ></feColorMatrix>
        <feBlend mode="normal" in2="shape" result="effect1_innerShadow_18_751"
        ></feBlend>
      </filter>
      <linearGradient
        id="paint0_linear_18_751"
        x1="125.5"
        y1="3"
        x2="125.5"
        y2="64"
        gradientUnits="userSpaceOnUse"
      >
        <stop stop-color="#EFE6FF"></stop>
        <stop offset="1" stop-color="#DCC9FF"></stop>
      </linearGradient>
      <linearGradient
        id="paint1_linear_18_751"
        x1="125.5"
        y1="3"
        x2="125.5"
        y2="64"
        gradientUnits="userSpaceOnUse"
      >
        <stop stop-color="#BD91FF" stop-opacity="0.25"></stop>
        <stop offset="1" stop-color="#B08FE1"></stop>
      </linearGradient>
      <linearGradient
        id="paint2_linear_18_751"
        x1="144.5"
        y1="11"
        x2="144.5"
        y2="52"
        gradientUnits="userSpaceOnUse"
      >
        <stop stop-color="#B987F1" stop-opacity="0.25"></stop>
        <stop offset="1" stop-color="#B987F1"></stop>
      </linearGradient>
      <linearGradient
        id="paint3_linear_18_751"
        x1="33.5"
        y1="17"
        x2="33.5"
        y2="46"
        gradientUnits="userSpaceOnUse"
      >
        <stop stop-color="#B987F1" stop-opacity="0.25"></stop>
        <stop offset="1" stop-color="#B987F1"></stop>
      </linearGradient>
      <linearGradient
        id="paint4_linear_18_751"
        x1="33.5002"
        y1="17"
        x2="33.5002"
        y2="46"
        gradientUnits="userSpaceOnUse"
      >
        <stop stop-color="#B987F1" stop-opacity="0.25"></stop>
        <stop offset="1" stop-color="#B987F1"></stop>
      </linearGradient>
      <clipPath id="clip0_18_751">
        <rect width="251" height="71" fill="white"></rect>
      </clipPath>
    </defs>
  </svg>