<svg
    width="270"
    height="71"
    viewBox="0 0 270 71"
    fill="none"
    xmlns="http://www.w3.org/2000/svg"
  >
    <g clip-path="url(#clip0_18_741)">
      <g filter="url(#filter0_d_18_741)">
        <g filter="url(#filter1_ii_18_741)">
          <path
            d="M253 3H17C10.3726 3 5 8.37258 5 15V52C5 58.6274 10.3726 64 17 64H253C259.627 64 265 58.6274 265 52V15C265 8.37258 259.627 3 253 3Z"
            fill="url(#paint0_linear_18_741)"></path>
        </g>
        <path
          d="M253 2.5H17C10.0964 2.5 4.5 8.09644 4.5 15V52C4.5 58.9036 10.0964 64.5 17 64.5H253C259.904 64.5 265.5 58.9036 265.5 52V15C265.5 8.09644 259.904 2.5 253 2.5Z"
          stroke="url(#paint1_linear_18_741)"></path>
        <g filter="url(#filter2_i_18_741)">
          <path
            d="M56.6985 19.4828L63.0792 38.7805H63.3306L69.6993 19.4828H74.5836L65.9404 44H60.4575L51.8262 19.4828H56.6985ZM75.2615 44V25.6121H79.5951V44H75.2615ZM77.4403 23.0024C76.754 23.0024 76.1634 22.7749 75.6686 22.32C75.1738 21.8571 74.9263 21.3025 74.9263 20.656C74.9263 20.0016 75.1738 19.4469 75.6686 18.992C76.1634 18.5291 76.754 18.2977 77.4403 18.2977C78.1347 18.2977 78.7252 18.5291 79.2121 18.992C79.7069 19.4469 79.9543 20.0016 79.9543 20.656C79.9543 21.3025 79.7069 21.8571 79.2121 22.32C78.7252 22.7749 78.1347 23.0024 77.4403 23.0024ZM96.2248 30.4725L92.2743 30.9034C92.1625 30.5044 91.967 30.1293 91.6877 29.7781C91.4163 29.427 91.0492 29.1436 90.5863 28.9282C90.1234 28.7127 89.5568 28.6049 88.8864 28.6049C87.9846 28.6049 87.2264 28.8005 86.6119 29.1915C86.0053 29.5826 85.706 30.0894 85.714 30.7119C85.706 31.2466 85.9016 31.6816 86.3006 32.0168C86.7076 32.3519 87.378 32.6273 88.3118 32.8428L91.4483 33.5132C93.1881 33.8883 94.481 34.4828 95.327 35.2969C96.1809 36.1109 96.6119 37.1764 96.6199 38.4932C96.6119 39.6504 96.2727 40.672 95.6023 41.5579C94.9399 42.4358 94.0181 43.1221 92.8369 43.6169C91.6558 44.1117 90.299 44.3591 88.7667 44.3591C86.5161 44.3591 84.7044 43.8883 83.3317 42.9465C81.959 41.9968 81.141 40.676 80.8776 38.984L85.1035 38.577C85.295 39.407 85.7021 40.0335 86.3246 40.4565C86.9471 40.8795 87.7571 41.091 88.7547 41.091C89.7843 41.091 90.6103 40.8795 91.2328 40.4565C91.8633 40.0335 92.1785 39.5108 92.1785 38.8883C92.1785 38.3615 91.975 37.9266 91.568 37.5834C91.1689 37.2402 90.5464 36.9769 89.7005 36.7933L86.564 36.1349C84.8002 35.7678 83.4953 35.1492 82.6494 34.2793C81.8034 33.4014 81.3844 32.2921 81.3924 30.9513C81.3844 29.818 81.6917 28.8364 82.3142 28.0064C82.9447 27.1684 83.8186 26.5219 84.9359 26.067C86.0612 25.6041 87.3581 25.3727 88.8266 25.3727C90.9814 25.3727 92.6773 25.8316 93.9143 26.7494C95.1594 27.6672 95.9295 28.9082 96.2248 30.4725ZM109.553 36.2666V25.6121H113.887V44H109.685V40.7318H109.493C109.078 41.7614 108.396 42.6034 107.446 43.2578C106.504 43.9122 105.343 44.2394 103.963 44.2394C102.757 44.2394 101.692 43.9721 100.766 43.4374C99.8487 42.8947 99.1304 42.1085 98.6116 41.079C98.0929 40.0415 97.8335 38.7885 97.8335 37.32V25.6121H102.167V36.6496C102.167 37.8148 102.486 38.7406 103.125 39.427C103.763 40.1133 104.601 40.4565 105.639 40.4565C106.277 40.4565 106.896 40.3009 107.494 39.9896C108.093 39.6784 108.584 39.2155 108.967 38.601C109.358 37.9784 109.553 37.2003 109.553 36.2666ZM121.275 44.3711C120.109 44.3711 119.06 44.1636 118.126 43.7486C117.2 43.3256 116.466 42.7031 115.923 41.8811C115.389 41.0591 115.121 40.0455 115.121 38.8404C115.121 37.8029 115.313 36.9449 115.696 36.2666C116.079 35.5882 116.602 35.0455 117.264 34.6385C117.927 34.2314 118.673 33.9242 119.503 33.7167C120.341 33.5012 121.207 33.3456 122.101 33.2498C123.178 33.1381 124.052 33.0383 124.722 32.9505C125.393 32.8547 125.88 32.7111 126.183 32.5195C126.494 32.32 126.65 32.0128 126.65 31.5978V31.5259C126.65 30.6241 126.382 29.9258 125.848 29.431C125.313 28.9361 124.543 28.6887 123.537 28.6887C122.476 28.6887 121.634 28.9202 121.011 29.3831C120.397 29.846 119.982 30.3927 119.766 31.0231L115.72 30.4485C116.039 29.3312 116.566 28.3974 117.3 27.6472C118.034 26.8891 118.932 26.3224 119.994 25.9473C121.055 25.5642 122.228 25.3727 123.513 25.3727C124.399 25.3727 125.281 25.4764 126.159 25.6839C127.037 25.8915 127.839 26.2346 128.565 26.7135C129.291 27.1843 129.874 27.8268 130.313 28.6409C130.76 29.4549 130.983 30.4725 130.983 31.6935V44H126.817V41.4741H126.674C126.41 41.9848 126.039 42.4637 125.56 42.9106C125.089 43.3496 124.495 43.7047 123.777 43.9761C123.066 44.2394 122.232 44.3711 121.275 44.3711ZM122.4 41.1868C123.27 41.1868 124.024 41.0152 124.662 40.672C125.301 40.3208 125.792 39.8579 126.135 39.2833C126.486 38.7087 126.662 38.0822 126.662 37.4038V35.237C126.526 35.3488 126.295 35.4525 125.967 35.5483C125.648 35.644 125.289 35.7278 124.89 35.7997C124.491 35.8715 124.096 35.9354 123.705 35.9912C123.314 36.0471 122.975 36.095 122.687 36.1349C122.041 36.2227 121.462 36.3663 120.951 36.5658C120.441 36.7654 120.038 37.0447 119.742 37.4038C119.447 37.755 119.299 38.2099 119.299 38.7686C119.299 39.5666 119.591 40.1692 120.173 40.5762C120.756 40.9832 121.498 41.1868 122.4 41.1868ZM137.315 19.4828V44H132.981V19.4828H137.315ZM150.046 19.4828V44H145.605V19.4828H150.046ZM159.128 44.3232C157.683 44.3232 156.391 43.9521 155.249 43.2099C154.108 42.4677 153.206 41.3903 152.544 39.9777C151.881 38.565 151.55 36.8492 151.55 34.83C151.55 32.7869 151.885 31.063 152.556 29.6584C153.234 28.2458 154.148 27.1804 155.297 26.4621C156.446 25.7358 157.727 25.3727 159.14 25.3727C160.217 25.3727 161.103 25.5563 161.798 25.9234C162.492 26.2825 163.043 26.7175 163.45 27.2282C163.857 27.731 164.172 28.2059 164.395 28.6528H164.575V19.4828H168.921V44H164.659V41.103H164.395C164.172 41.5499 163.849 42.0247 163.426 42.5275C163.003 43.0223 162.444 43.4453 161.75 43.7965C161.055 44.1476 160.181 44.3232 159.128 44.3232ZM160.337 40.7678C161.255 40.7678 162.037 40.5203 162.683 40.0255C163.33 39.5227 163.821 38.8244 164.156 37.9306C164.491 37.0367 164.659 35.9952 164.659 34.8061C164.659 33.6169 164.491 32.5834 164.156 31.7055C163.829 30.8276 163.342 30.1452 162.695 29.6584C162.057 29.1716 161.271 28.9282 160.337 28.9282C159.371 28.9282 158.565 29.1796 157.919 29.6824C157.272 30.1851 156.786 30.8795 156.458 31.7654C156.131 32.6512 155.968 33.6648 155.968 34.8061C155.968 35.9553 156.131 36.9808 156.458 37.8827C156.794 38.7765 157.284 39.4828 157.931 40.0016C158.585 40.5124 159.387 40.7678 160.337 40.7678ZM179.319 44.3591C177.476 44.3591 175.883 43.9761 174.543 43.2099C173.21 42.4358 172.184 41.3424 171.466 39.9298C170.748 38.5092 170.389 36.8372 170.389 34.9138C170.389 33.0223 170.748 31.3623 171.466 29.9338C172.192 28.4972 173.206 27.3799 174.507 26.5818C175.808 25.7757 177.336 25.3727 179.092 25.3727C180.225 25.3727 181.294 25.5563 182.3 25.9234C183.314 26.2825 184.207 26.8412 184.982 27.5994C185.764 28.3575 186.378 29.3232 186.825 30.4964C187.272 31.6616 187.496 33.0503 187.496 34.6624V35.9912H172.424V33.0702H183.341C183.334 32.2402 183.154 31.502 182.803 30.8555C182.452 30.2011 181.961 29.6863 181.33 29.3112C180.708 28.9361 179.982 28.7486 179.152 28.7486C178.266 28.7486 177.488 28.9641 176.817 29.395C176.147 29.818 175.624 30.3767 175.249 31.071C174.882 31.7574 174.694 32.5116 174.686 33.3336V35.8835C174.686 36.9529 174.882 37.8707 175.273 38.6369C175.664 39.395 176.211 39.9777 176.913 40.3847C177.615 40.7837 178.437 40.9832 179.379 40.9832C180.009 40.9832 180.58 40.8954 181.091 40.7199C181.602 40.5363 182.045 40.269 182.42 39.9178C182.795 39.5666 183.078 39.1317 183.27 38.6129L187.316 39.0678C187.061 40.1373 186.574 41.071 185.855 41.8691C185.145 42.6592 184.235 43.2737 183.126 43.7127C182.017 44.1437 180.748 44.3591 179.319 44.3591ZM193.136 33.2259V44H188.802V25.6121H192.944V28.7366H193.159C193.582 27.7071 194.257 26.8891 195.183 26.2825C196.116 25.676 197.27 25.3727 198.642 25.3727C199.911 25.3727 201.017 25.644 201.958 26.1867C202.908 26.7294 203.642 27.5156 204.161 28.5451C204.688 29.5746 204.947 30.8236 204.939 32.2921V44H200.606V32.9625C200.606 31.7334 200.286 30.7717 199.648 30.0774C199.017 29.3831 198.144 29.0359 197.026 29.0359C196.268 29.0359 195.594 29.2035 195.003 29.5387C194.42 29.8659 193.962 30.3408 193.626 30.9633C193.299 31.5858 193.136 32.34 193.136 33.2259ZM216.167 25.6121V28.9641H205.596V25.6121H216.167ZM208.206 21.2067H212.54V38.4693C212.54 39.0519 212.627 39.4988 212.803 39.8101C212.986 40.1133 213.226 40.3208 213.521 40.4326C213.816 40.5443 214.144 40.6002 214.503 40.6002C214.774 40.6002 215.022 40.5802 215.245 40.5403C215.476 40.5004 215.652 40.4645 215.772 40.4326L216.502 43.8204C216.271 43.9002 215.939 43.988 215.508 44.0838C215.085 44.1796 214.567 44.2354 213.952 44.2514C212.867 44.2833 211.889 44.1197 211.019 43.7606C210.149 43.3935 209.459 42.8268 208.948 42.0607C208.445 41.2945 208.198 40.3368 208.206 39.1875V21.2067ZM217.431 44V25.6121H221.765V44H217.431ZM219.61 23.0024C218.924 23.0024 218.333 22.7749 217.838 22.32C217.344 21.8571 217.096 21.3025 217.096 20.656C217.096 20.0016 217.344 19.4469 217.838 18.992C218.333 18.5291 218.924 18.2977 219.61 18.2977C220.304 18.2977 220.895 18.5291 221.382 18.992C221.877 19.4469 222.124 20.0016 222.124 20.656C222.124 21.3025 221.877 21.8571 221.382 22.32C220.895 22.7749 220.304 23.0024 219.61 23.0024ZM233.043 25.6121V28.9641H222.473V25.6121H233.043ZM225.083 21.2067H229.416V38.4693C229.416 39.0519 229.504 39.4988 229.68 39.8101C229.863 40.1133 230.103 40.3208 230.398 40.4326C230.693 40.5443 231.02 40.6002 231.379 40.6002C231.651 40.6002 231.898 40.5802 232.122 40.5403C232.353 40.5004 232.529 40.4645 232.648 40.4326L233.379 43.8204C233.147 43.9002 232.816 43.988 232.385 44.0838C231.962 44.1796 231.443 44.2354 230.829 44.2514C229.743 44.2833 228.766 44.1197 227.896 43.7606C227.026 43.3935 226.336 42.8268 225.825 42.0607C225.322 41.2945 225.075 40.3368 225.083 39.1875V21.2067ZM237.002 50.8955C236.411 50.8955 235.864 50.8476 235.361 50.7518C234.867 50.664 234.472 50.5603 234.176 50.4405L235.182 47.0646C235.812 47.2482 236.375 47.336 236.87 47.328C237.365 47.32 237.8 47.1644 238.175 46.8611C238.558 46.5658 238.881 46.071 239.144 45.3767L239.515 44.3831L232.847 25.6121H237.444L241.682 39.4988H241.874L246.124 25.6121H250.733L243.37 46.2267C243.027 47.2003 242.572 48.0343 242.006 48.7287C241.439 49.431 240.745 49.9657 239.923 50.3328C239.108 50.7079 238.135 50.8955 237.002 50.8955Z"
            fill="url(#paint2_linear_18_741)"></path>
        </g>
        <g filter="url(#filter3_i_18_741)">
          <path
            fill-rule="evenodd"
            clip-rule="evenodd"
            d="M41.6081 31.9363C41.5957 34.2115 40.798 36.4126 39.35 38.1671C37.902 39.9216 35.8926 41.1219 33.6617 41.5648C33.4232 41.6014 33.1794 41.5841 32.9484 41.5144C32.7173 41.4446 32.5048 41.3241 32.3263 41.1617C32.1477 40.9992 32.0077 40.7989 31.9165 40.5754C31.8253 40.3519 31.7851 40.1108 31.7989 39.8698L31.839 24.0449C31.8265 23.8024 31.8678 23.5602 31.96 23.3356C32.0522 23.1111 32.193 22.9097 32.3722 22.7461C32.5515 22.5825 32.7648 22.4606 32.9968 22.3893C33.2288 22.3181 33.4737 22.2991 33.7138 22.3338C35.9397 22.7649 37.9458 23.9588 39.3867 25.71C40.8275 27.4612 41.6131 29.6601 41.6081 31.9282M40.9505 41.8577C42.896 39.8911 44.2158 37.3921 44.7431 34.676C45.2705 31.9599 44.9819 29.1483 43.9136 26.5961C42.8454 24.044 41.0454 21.8655 38.7409 20.3356C36.4363 18.8058 33.7304 17.9931 30.9646 18C28.1989 18.007 25.4971 18.8334 23.2003 20.3749C20.9035 21.9164 19.1146 24.1039 18.0592 26.6615C17.0039 29.219 16.7294 32.032 17.2705 34.7454C17.8116 37.4588 19.1439 39.9511 21.0994 41.9078C22.4056 43.2091 23.9551 44.2402 25.6597 44.9424C27.3642 45.6445 29.1903 46.0039 31.0337 46C32.877 45.9961 34.7016 45.6289 36.4031 44.9196C38.1046 44.2102 39.6498 43.1725 40.9505 41.8657V41.8577Z"
            fill="url(#paint3_linear_18_741)"></path>
        </g>
      </g>
    </g>
    <defs>
      <filter
        id="filter0_d_18_741"
        x="0"
        y="0"
        width="270"
        height="71"
        filterUnits="userSpaceOnUse"
        color-interpolation-filters="sRGB"
      >
        <feFlood flood-opacity="0" result="BackgroundImageFix"></feFlood>
        <feColorMatrix
          in="SourceAlpha"
          type="matrix"
          values="0 0 0 0 0 0 0 0 0 0 0 0 0 0 0 0 0 0 127 0"
          result="hardAlpha"></feColorMatrix>
        <feOffset dy="2"></feOffset>
        <feGaussianBlur stdDeviation="2"></feGaussianBlur>
        <feComposite in2="hardAlpha" operator="out"></feComposite>
        <feColorMatrix
          type="matrix"
          values="0 0 0 0 0 0 0 0 0 0 0 0 0 0 0 0 0 0 0.15 0"></feColorMatrix>
        <feBlend
          mode="normal"
          in2="BackgroundImageFix"
          result="effect1_dropShadow_18_741"></feBlend>
        <feBlend
          mode="normal"
          in="SourceGraphic"
          in2="effect1_dropShadow_18_741"
          result="shape"></feBlend>
      </filter>
      <filter
        id="filter1_ii_18_741"
        x="5"
        y="2.5"
        width="260"
        height="62"
        filterUnits="userSpaceOnUse"
        color-interpolation-filters="sRGB"
      >
        <feFlood flood-opacity="0" result="BackgroundImageFix"></feFlood>
        <feBlend
          mode="normal"
          in="SourceGraphic"
          in2="BackgroundImageFix"
          result="shape"></feBlend>
        <feColorMatrix
          in="SourceAlpha"
          type="matrix"
          values="0 0 0 0 0 0 0 0 0 0 0 0 0 0 0 0 0 0 127 0"
          result="hardAlpha"></feColorMatrix>
        <feOffset dy="2"></feOffset>
        <feGaussianBlur stdDeviation="0.25"></feGaussianBlur>
        <feComposite in2="hardAlpha" operator="arithmetic" k2="-1" k3="1"
        ></feComposite>
        <feColorMatrix
          type="matrix"
          values="0 0 0 0 1 0 0 0 0 1 0 0 0 0 1 0 0 0 1 0"></feColorMatrix>
        <feBlend mode="normal" in2="shape" result="effect1_innerShadow_18_741"
        ></feBlend>
        <feColorMatrix
          in="SourceAlpha"
          type="matrix"
          values="0 0 0 0 0 0 0 0 0 0 0 0 0 0 0 0 0 0 127 0"
          result="hardAlpha"></feColorMatrix>
        <feOffset dy="-3.5"></feOffset>
        <feGaussianBlur stdDeviation="0.25"></feGaussianBlur>
        <feComposite in2="hardAlpha" operator="arithmetic" k2="-1" k3="1"
        ></feComposite>
        <feColorMatrix
          type="matrix"
          values="0 0 0 0 1 0 0 0 0 0.510828 0 0 0 0 0.337451 0 0 0 0.3 0"
        ></feColorMatrix>
        <feBlend
          mode="normal"
          in2="effect1_innerShadow_18_741"
          result="effect2_innerShadow_18_741"></feBlend>
      </filter>
      <filter
        id="filter2_i_18_741"
        x="51.8262"
        y="18.2977"
        width="198.907"
        height="33.0978"
        filterUnits="userSpaceOnUse"
        color-interpolation-filters="sRGB"
      >
        <feFlood flood-opacity="0" result="BackgroundImageFix"></feFlood>
        <feBlend
          mode="normal"
          in="SourceGraphic"
          in2="BackgroundImageFix"
          result="shape"></feBlend>
        <feColorMatrix
          in="SourceAlpha"
          type="matrix"
          values="0 0 0 0 0 0 0 0 0 0 0 0 0 0 0 0 0 0 127 0"
          result="hardAlpha"></feColorMatrix>
        <feOffset dy="0.7"></feOffset>
        <feGaussianBlur stdDeviation="0.25"></feGaussianBlur>
        <feComposite in2="hardAlpha" operator="arithmetic" k2="-1" k3="1"
        ></feComposite>
        <feColorMatrix
          type="matrix"
          values="0 0 0 0 1 0 0 0 0 0.458824 0 0 0 0 0.266667 0 0 0 1 0"
        ></feColorMatrix>
        <feBlend mode="normal" in2="shape" result="effect1_innerShadow_18_741"
        ></feBlend>
      </filter>
      <filter
        id="filter3_i_18_741"
        x="17"
        y="18"
        width="28"
        height="28.5001"
        filterUnits="userSpaceOnUse"
        color-interpolation-filters="sRGB"
      >
        <feFlood flood-opacity="0" result="BackgroundImageFix"></feFlood>
        <feBlend
          mode="normal"
          in="SourceGraphic"
          in2="BackgroundImageFix"
          result="shape"></feBlend>
        <feColorMatrix
          in="SourceAlpha"
          type="matrix"
          values="0 0 0 0 0 0 0 0 0 0 0 0 0 0 0 0 0 0 127 0"
          result="hardAlpha"></feColorMatrix>
        <feOffset dy="0.7"></feOffset>
        <feGaussianBlur stdDeviation="0.25"></feGaussianBlur>
        <feComposite in2="hardAlpha" operator="arithmetic" k2="-1" k3="1"
        ></feComposite>
        <feColorMatrix
          type="matrix"
          values="0 0 0 0 1 0 0 0 0 0.458824 0 0 0 0 0.266667 0 0 0 1 0"
        ></feColorMatrix>
        <feBlend mode="normal" in2="shape" result="effect1_innerShadow_18_741"
        ></feBlend>
      </filter>
      <linearGradient
        id="paint0_linear_18_741"
        x1="135"
        y1="3"
        x2="135"
        y2="64"
        gradientUnits="userSpaceOnUse"
      >
        <stop stop-color="#FFE2D8"></stop>
        <stop offset="1" stop-color="#FFC1AA"></stop>
      </linearGradient>
      <linearGradient
        id="paint1_linear_18_741"
        x1="135"
        y1="3"
        x2="135"
        y2="64"
        gradientUnits="userSpaceOnUse"
      >
        <stop stop-color="#FF8256" stop-opacity="0.25"></stop>
        <stop offset="1" stop-color="#FF8256"></stop>
      </linearGradient>
      <linearGradient
        id="paint2_linear_18_741"
        x1="151.5"
        y1="11"
        x2="151.5"
        y2="52"
        gradientUnits="userSpaceOnUse"
      >
        <stop stop-color="#FF7544" stop-opacity="0.25"></stop>
        <stop offset="1" stop-color="#FC5317"></stop>
      </linearGradient>
      <linearGradient
        id="paint3_linear_18_741"
        x1="31"
        y1="18"
        x2="31"
        y2="46"
        gradientUnits="userSpaceOnUse"
      >
        <stop stop-color="#FF7544" stop-opacity="0.25"></stop>
        <stop offset="1" stop-color="#FF7544"></stop>
      </linearGradient>
      <clipPath id="clip0_18_741">
        <rect width="270" height="71" fill="white"></rect>
      </clipPath>
    </defs>
  </svg>