<svg
    xmlns="http://www.w3.org/2000/svg"
    width="193"
    height="63"
    viewBox="0 0 193 63"
    fill="none"
  >
    <g clip-path="url(#clip0_18_762)">
      <g filter="url(#filter0_ii_18_762)">
        <path
          d="M180 1H13C6.37258 1 1 6.37258 1 13V50C1 56.6274 6.37258 62 13 62H180C186.627 62 192 56.6274 192 50V13C192 6.37258 186.627 1 180 1Z"
          fill="url(#paint0_linear_18_762)"></path>
      </g>
      <path
        d="M180 0.5H13C6.09644 0.5 0.5 6.09644 0.5 13V50C0.5 56.9036 6.09644 62.5 13 62.5H180C186.904 62.5 192.5 56.9036 192.5 50V13C192.5 6.09644 186.904 0.5 180 0.5Z"
        stroke="url(#paint1_linear_18_762)"></path>
      <g filter="url(#filter1_i_18_762)">
        <path
          d="M65.5776 42L58.6582 17.4828H63.4348L67.8522 35.4996H68.0796L72.7963 17.4828H77.1419L81.8705 35.5116H82.086L86.5034 17.4828H91.2799L84.3605 42H79.9791L75.0708 24.7973H74.8793L69.9591 42H65.5776ZM98.0722 42.3591C96.2286 42.3591 94.6365 41.9761 93.2957 41.2099C91.9629 40.4358 90.9373 39.3424 90.219 37.9298C89.5008 36.5092 89.1416 34.8372 89.1416 32.9138C89.1416 31.0223 89.5008 29.3623 90.219 27.9338C90.9453 26.4972 91.9589 25.3799 93.2598 24.5818C94.5606 23.7757 96.089 23.3727 97.8448 23.3727C98.978 23.3727 100.048 23.5563 101.053 23.9234C102.067 24.2825 102.961 24.8412 103.735 25.5994C104.517 26.3575 105.131 27.3232 105.578 28.4964C106.025 29.6616 106.249 31.0503 106.249 32.6624V33.9912H91.1768V31.0702H102.095C102.087 30.2402 101.907 29.502 101.556 28.8555C101.205 28.2011 100.714 27.6863 100.084 27.3112C99.4609 26.9361 98.7346 26.7486 97.9046 26.7486C97.0187 26.7486 96.2406 26.9641 95.5702 27.395C94.8998 27.818 94.3771 28.3767 94.002 29.071C93.6349 29.7574 93.4473 30.5116 93.4393 31.3336V33.8835C93.4393 34.9529 93.6349 35.8707 94.0259 36.6369C94.417 37.395 94.9637 37.9777 95.666 38.3847C96.3683 38.7837 97.1903 38.9832 98.1321 38.9832C98.7626 38.9832 99.3332 38.8954 99.844 38.7199C100.355 38.5363 100.798 38.269 101.173 37.9178C101.548 37.5666 101.831 37.1317 102.023 36.6129L106.069 37.0678C105.814 38.1373 105.327 39.071 104.609 39.8691C103.898 40.6592 102.989 41.2737 101.879 41.7127C100.77 42.1437 99.5008 42.3591 98.0722 42.3591ZM107.747 42V17.4828H112.08V26.6528H112.26C112.483 26.2059 112.799 25.731 113.206 25.2282C113.613 24.7175 114.163 24.2825 114.858 23.9234C115.552 23.5563 116.438 23.3727 117.515 23.3727C118.936 23.3727 120.217 23.7358 121.358 24.4621C122.507 25.1804 123.417 26.2458 124.088 27.6584C124.766 29.063 125.105 30.7869 125.105 32.83C125.105 34.8492 124.774 36.565 124.111 37.9777C123.449 39.3903 122.547 40.4677 121.406 41.2099C120.265 41.9521 118.972 42.3232 117.527 42.3232C116.474 42.3232 115.6 42.1476 114.906 41.7965C114.211 41.4453 113.653 41.0223 113.23 40.5275C112.815 40.0247 112.491 39.5499 112.26 39.103H112.009V42H107.747ZM111.997 32.8061C111.997 33.9952 112.164 35.0367 112.499 35.9306C112.843 36.8244 113.333 37.5227 113.972 38.0255C114.618 38.5203 115.4 38.7678 116.318 38.7678C117.276 38.7678 118.078 38.5124 118.724 38.0016C119.371 37.4828 119.858 36.7765 120.185 35.8827C120.52 34.9808 120.688 33.9553 120.688 32.8061C120.688 31.6648 120.524 30.6512 120.197 29.7654C119.87 28.8795 119.383 28.1851 118.736 27.6824C118.09 27.1796 117.284 26.9282 116.318 26.9282C115.392 26.9282 114.606 27.1716 113.96 27.6584C113.313 28.1452 112.823 28.8276 112.487 29.7055C112.16 30.5834 111.997 31.6169 111.997 32.8061ZM140.963 28.4725L137.012 28.9034C136.9 28.5044 136.705 28.1293 136.425 27.7781C136.154 27.427 135.787 27.1436 135.324 26.9282C134.861 26.7127 134.295 26.6049 133.624 26.6049C132.722 26.6049 131.964 26.8005 131.35 27.1915C130.743 27.5826 130.444 28.0894 130.452 28.7119C130.444 29.2466 130.639 29.6816 131.038 30.0168C131.445 30.3519 132.116 30.6273 133.05 30.8428L136.186 31.5132C137.926 31.8883 139.219 32.4828 140.065 33.2969C140.919 34.1109 141.35 35.1764 141.358 36.4932C141.35 37.6504 141.01 38.672 140.34 39.5579C139.678 40.4358 138.756 41.1221 137.575 41.6169C136.394 42.1117 135.037 42.3591 133.505 42.3591C131.254 42.3591 129.442 41.8883 128.07 40.9465C126.697 39.9968 125.879 38.676 125.615 36.984L129.841 36.577C130.033 37.407 130.44 38.0335 131.062 38.4565C131.685 38.8795 132.495 39.091 133.493 39.091C134.522 39.091 135.348 38.8795 135.971 38.4565C136.601 38.0335 136.916 37.5108 136.916 36.8883C136.916 36.3615 136.713 35.9266 136.306 35.5834C135.907 35.2402 135.284 34.9769 134.438 34.7933L131.302 34.1349C129.538 33.7678 128.233 33.1492 127.387 32.2793C126.541 31.4014 126.122 30.2921 126.13 28.9513C126.122 27.818 126.429 26.8364 127.052 26.0064C127.682 25.1684 128.556 24.5219 129.674 24.067C130.799 23.6041 132.096 23.3727 133.564 23.3727C135.719 23.3727 137.415 23.8316 138.652 24.7494C139.897 25.6672 140.667 26.9082 140.963 28.4725ZM142.571 42V23.6121H146.905V42H142.571ZM144.75 21.0024C144.064 21.0024 143.473 20.7749 142.978 20.32C142.484 19.8571 142.236 19.3025 142.236 18.656C142.236 18.0016 142.484 17.4469 142.978 16.992C143.473 16.5291 144.064 16.2977 144.75 16.2977C145.444 16.2977 146.035 16.5291 146.522 16.992C147.017 17.4469 147.264 18.0016 147.264 18.656C147.264 19.3025 147.017 19.8571 146.522 20.32C146.035 20.7749 145.444 21.0024 144.75 21.0024ZM158.183 23.6121V26.9641H147.613V23.6121H158.183ZM150.223 19.2067H154.556V36.4693C154.556 37.0519 154.644 37.4988 154.819 37.8101C155.003 38.1133 155.242 38.3208 155.538 38.4326C155.833 38.5443 156.16 38.6002 156.519 38.6002C156.791 38.6002 157.038 38.5802 157.262 38.5403C157.493 38.5004 157.669 38.4645 157.788 38.4326L158.519 41.8204C158.287 41.9002 157.956 41.988 157.525 42.0838C157.102 42.1796 156.583 42.2354 155.969 42.2514C154.883 42.2833 153.906 42.1197 153.036 41.7606C152.166 41.3935 151.476 40.8268 150.965 40.0607C150.462 39.2945 150.215 38.3368 150.223 37.1875V19.2067ZM167.391 42.3591C165.547 42.3591 163.955 41.9761 162.614 41.2099C161.282 40.4358 160.256 39.3424 159.538 37.9298C158.819 36.5092 158.46 34.8372 158.46 32.9138C158.46 31.0223 158.819 29.3623 159.538 27.9338C160.264 26.4972 161.278 25.3799 162.578 24.5818C163.879 23.7757 165.408 23.3727 167.163 23.3727C168.297 23.3727 169.366 23.5563 170.372 23.9234C171.385 24.2825 172.279 24.8412 173.053 25.5994C173.835 26.3575 174.45 27.3232 174.897 28.4964C175.344 29.6616 175.567 31.0503 175.567 32.6624V33.9912H160.495V31.0702H171.413C171.405 30.2402 171.226 29.502 170.875 28.8555C170.523 28.2011 170.033 27.6863 169.402 27.3112C168.78 26.9361 168.053 26.7486 167.223 26.7486C166.337 26.7486 165.559 26.9641 164.889 27.395C164.218 27.818 163.696 28.3767 163.321 29.071C162.954 29.7574 162.766 30.5116 162.758 31.3336V33.8835C162.758 34.9529 162.954 35.8707 163.345 36.6369C163.736 37.395 164.282 37.9777 164.985 38.3847C165.687 38.7837 166.509 38.9832 167.451 38.9832C168.081 38.9832 168.652 38.8954 169.163 38.7199C169.673 38.5363 170.116 38.269 170.491 37.9178C170.867 37.5666 171.15 37.1317 171.341 36.6129L175.388 37.0678C175.132 38.1373 174.645 39.071 173.927 39.8691C173.217 40.6592 172.307 41.2737 171.198 41.7127C170.088 42.1437 168.819 42.3591 167.391 42.3591Z"
          fill="url(#paint2_linear_18_762)"></path>
      </g>
      <g filter="url(#filter2_i_18_762)">
        <path
          d="M40.3047 33.2276H45.6681V21.9517C45.6814 21.5826 45.6189 21.2147 45.4845 20.8697C45.35 20.5247 45.1462 20.2096 44.8853 19.9433C44.6112 19.6872 44.2877 19.4874 43.9337 19.3556C43.5798 19.2238 43.2025 19.1627 42.8241 19.1759H29.6944V15.4286C29.6944 14.7845 29.4334 14.1668 28.9689 13.7113C28.5043 13.2559 27.8742 13 27.2171 13H26.7489C26.0919 13 25.4618 13.2559 24.9972 13.7113C24.5326 14.1668 24.2716 14.7845 24.2716 15.4286V19.1759H23.2609C22.3839 19.1759 21.5268 19.1759 20.6449 19.1759C20.2767 19.18 19.9134 19.2592 19.5782 19.4085C19.243 19.5578 18.9431 19.7738 18.6977 20.0429C18.3423 20.4269 18.1103 20.9051 18.0307 21.4176C17.951 21.9302 18.0273 22.4544 18.2498 22.9248C18.4724 23.3951 18.8315 23.7907 19.2821 24.0621C19.7328 24.3335 20.255 24.4687 20.7836 24.4507H40.3047V33.2276Z"
          fill="url(#paint3_linear_18_762)"></path>
        <path
          d="M49.5229 35.5711H29.6426V26.7967H24.2742V38.0143C24.2414 38.3941 24.2933 38.7763 24.4262 39.1345C24.5591 39.4927 24.77 39.8183 25.0441 40.0886C25.3182 40.3589 25.649 40.5675 26.0136 40.7C26.3781 40.8325 26.7677 40.8856 27.1553 40.8557H40.2404V44.5714C40.2404 45.2155 40.5014 45.8332 40.966 46.2887C41.4306 46.7441 42.0607 47 42.7178 47H43.1934C43.8504 47 44.4805 46.7441 44.9451 46.2887C45.4097 45.8332 45.6707 45.2155 45.6707 44.5714V40.8946H49.5229C50.1799 40.8946 50.81 40.6387 51.2746 40.1833C51.7392 39.7278 52.0002 39.1101 52.0002 38.466V37.9997C52.0002 37.3556 51.7392 36.7379 51.2746 36.2825C50.81 35.827 50.1799 35.5711 49.5229 35.5711Z"
          fill="url(#paint4_linear_18_762)"></path>
      </g>
    </g>
    <defs>
      <filter
        id="filter0_ii_18_762"
        x="1"
        y="0.5"
        width="191"
        height="62"
        filterUnits="userSpaceOnUse"
        color-interpolation-filters="sRGB"
      >
        <feFlood flood-opacity="0" result="BackgroundImageFix"></feFlood>
        <feBlend
          mode="normal"
          in="SourceGraphic"
          in2="BackgroundImageFix"
          result="shape"></feBlend>
        <feColorMatrix
          in="SourceAlpha"
          type="matrix"
          values="0 0 0 0 0 0 0 0 0 0 0 0 0 0 0 0 0 0 127 0"
          result="hardAlpha"></feColorMatrix>
        <feOffset dy="2"></feOffset>
        <feGaussianBlur stdDeviation="0.25"></feGaussianBlur>
        <feComposite in2="hardAlpha" operator="arithmetic" k2="-1" k3="1"
        ></feComposite>
        <feColorMatrix
          type="matrix"
          values="0 0 0 0 1 0 0 0 0 1 0 0 0 0 1 0 0 0 1 0"></feColorMatrix>
        <feBlend mode="normal" in2="shape" result="effect1_innerShadow_18_762"
        ></feBlend>
        <feColorMatrix
          in="SourceAlpha"
          type="matrix"
          values="0 0 0 0 0 0 0 0 0 0 0 0 0 0 0 0 0 0 127 0"
          result="hardAlpha"></feColorMatrix>
        <feOffset dy="-3.5"></feOffset>
        <feGaussianBlur stdDeviation="0.25"></feGaussianBlur>
        <feComposite in2="hardAlpha" operator="arithmetic" k2="-1" k3="1"
        ></feComposite>
        <feColorMatrix
          type="matrix"
          values="0 0 0 0 0.259278 0 0 0 0 0.776488 0 0 0 0 0.98877 0 0 0 0.3 0"
        ></feColorMatrix>
        <feBlend
          mode="normal"
          in2="effect1_innerShadow_18_762"
          result="effect2_innerShadow_18_762"></feBlend>
      </filter>
      <filter
        id="filter1_i_18_762"
        x="58.6582"
        y="16.2977"
        width="116.909"
        height="26.5614"
        filterUnits="userSpaceOnUse"
        color-interpolation-filters="sRGB"
      >
        <feFlood flood-opacity="0" result="BackgroundImageFix"></feFlood>
        <feBlend
          mode="normal"
          in="SourceGraphic"
          in2="BackgroundImageFix"
          result="shape"></feBlend>
        <feColorMatrix
          in="SourceAlpha"
          type="matrix"
          values="0 0 0 0 0 0 0 0 0 0 0 0 0 0 0 0 0 0 127 0"
          result="hardAlpha"></feColorMatrix>
        <feOffset dy="0.7"></feOffset>
        <feGaussianBlur stdDeviation="0.25"></feGaussianBlur>
        <feComposite in2="hardAlpha" operator="arithmetic" k2="-1" k3="1"
        ></feComposite>
        <feColorMatrix
          type="matrix"
          values="0 0 0 0 0.266667 0 0 0 0 0.670588 0 0 0 0 1 0 0 0 1 0"
        ></feColorMatrix>
        <feBlend mode="normal" in2="shape" result="effect1_innerShadow_18_762"
        ></feBlend>
      </filter>
      <filter
        id="filter2_i_18_762"
        x="18"
        y="13"
        width="34"
        height="34.5"
        filterUnits="userSpaceOnUse"
        color-interpolation-filters="sRGB"
      >
        <feFlood flood-opacity="0" result="BackgroundImageFix"></feFlood>
        <feBlend
          mode="normal"
          in="SourceGraphic"
          in2="BackgroundImageFix"
          result="shape"></feBlend>
        <feColorMatrix
          in="SourceAlpha"
          type="matrix"
          values="0 0 0 0 0 0 0 0 0 0 0 0 0 0 0 0 0 0 127 0"
          result="hardAlpha"></feColorMatrix>
        <feOffset dy="0.7"></feOffset>
        <feGaussianBlur stdDeviation="0.25"></feGaussianBlur>
        <feComposite in2="hardAlpha" operator="arithmetic" k2="-1" k3="1"
        ></feComposite>
        <feColorMatrix
          type="matrix"
          values="0 0 0 0 0.266667 0 0 0 0 0.670588 0 0 0 0 1 0 0 0 1 0"
        ></feColorMatrix>
        <feBlend mode="normal" in2="shape" result="effect1_innerShadow_18_762"
        ></feBlend>
      </filter>
      <linearGradient
        id="paint0_linear_18_762"
        x1="96.5"
        y1="1"
        x2="96.5"
        y2="62"
        gradientUnits="userSpaceOnUse"
      >
        <stop stop-color="#D8F7FF"></stop>
        <stop offset="1" stop-color="#AADDFF"></stop>
      </linearGradient>
      <linearGradient
        id="paint1_linear_18_762"
        x1="96.5"
        y1="1"
        x2="96.5"
        y2="62"
        gradientUnits="userSpaceOnUse"
      >
        <stop stop-color="#56D2FF" stop-opacity="0.25"></stop>
        <stop offset="1" stop-color="#60AECA"></stop>
      </linearGradient>
      <linearGradient
        id="paint2_linear_18_762"
        x1="118"
        y1="9.00003"
        x2="118"
        y2="50"
        gradientUnits="userSpaceOnUse"
      >
        <stop stop-color="#56D2FF" stop-opacity="0.25"></stop>
        <stop offset="1" stop-color="#2494EF"></stop>
      </linearGradient>
      <linearGradient
        id="paint3_linear_18_762"
        x1="35"
        y1="13"
        x2="35"
        y2="47"
        gradientUnits="userSpaceOnUse"
      >
        <stop stop-color="#56D2FF" stop-opacity="0.25"></stop>
        <stop offset="1" stop-color="#2494EF"></stop>
      </linearGradient>
      <linearGradient
        id="paint4_linear_18_762"
        x1="35.0002"
        y1="13"
        x2="35.0002"
        y2="47"
        gradientUnits="userSpaceOnUse"
      >
        <stop stop-color="#56D2FF" stop-opacity="0.25"></stop>
        <stop offset="1" stop-color="#2494EF"></stop>
      </linearGradient>
      <clipPath id="clip0_18_762">
        <rect width="193" height="63" fill="white"></rect>
      </clipPath>
    </defs>
  </svg>